<svg xmlns="http://www.w3.org/2000/svg" width="40" height="39.866" viewBox="0 0 40 39.866">
  <path id="Path_11" data-name="Path 11" d="M40-16.206h0A13.4,13.4,0,0,0,26.667-29.541a13.339,13.339,0,0,0-9.825,4.319H0V10.325H35.56V-6.287A13.326,13.326,0,0,0,40-16.206Zm-6.842,0v.013a6.536,6.536,0,0,1-6.5,6.5,6.536,6.536,0,0,1-6.5-6.5,6.536,6.536,0,0,1,6.5-6.5A6.536,6.536,0,0,1,33.158-16.206Zm-4.44,19.69H6.842V-18.379h6.667a12.893,12.893,0,0,0-.2,2.173A13.424,13.424,0,0,0,26.653-2.86a13.052,13.052,0,0,0,2.065-.175Z" transform="translate(0 29.541)" fill="#fff"/>
</svg>
